<svg width="32" height="32" viewBox="0 0 32 32" xmlns="http://www.w3.org/2000/svg">
  <defs>
    <!-- Gradient for the star -->
    <linearGradient id="starGradient" x1="0%" y1="0%" x2="100%" y2="100%">
      <stop offset="0%" style="stop-color:#6366f1;stop-opacity:1" />
      <stop offset="50%" style="stop-color:#8b5cf6;stop-opacity:1" />
      <stop offset="100%" style="stop-color:#a855f7;stop-opacity:1" />
    </linearGradient>
    
    <!-- Gradient for the center dot -->
    <radialGradient id="dotGradient" cx="50%" cy="50%" r="50%">
      <stop offset="0%" style="stop-color:#fbbf24;stop-opacity:1" />
      <stop offset="100%" style="stop-color:#f59e0b;stop-opacity:1" />
    </radialGradient>
    
    <!-- Drop shadow filter -->
    <filter id="shadow" x="-20%" y="-20%" width="140%" height="140%">
      <feDropShadow dx="1" dy="1" stdDeviation="1" flood-color="#4f46e5" flood-opacity="0.3"/>
    </filter>
  </defs>
  
  <!-- Background circle with shadow -->
  <circle cx="16" cy="16" r="15" fill="url(#starGradient)" stroke="#4f46e5" stroke-width="1" filter="url(#shadow)"/>
  
  <!-- Rounded star using curved paths -->
  <path d="M16 3
           C17 7 18.5 9 20.5 10.5
           C22.5 12 24.5 13 25.5 15
           C26.5 17 27 19 26.5 21
           C26 23 24.5 25 22.5 26.5
           C20.5 28 18.5 28.5 16 29
           C13.5 28.5 11.5 28 9.5 26.5
           C7.5 25 6 23 5.5 21
           C5 19 5.5 17 6.5 15
           C7.5 13 9.5 12 11.5 10.5
           C13.5 9 15 7 16 3Z" 
        fill="url(#starGradient)" 
        stroke="#4f46e5" 
        stroke-width="0.5"
        stroke-linejoin="round"/>
  
  <!-- Center dot -->
  <circle cx="16" cy="16" r="3" fill="url(#dotGradient)" stroke="#d97706" stroke-width="0.5"/>
  
  <!-- Inner glow for the dot -->
  <circle cx="16" cy="16" r="1.5" fill="#fef3c7" opacity="0.9"/>
  
  <!-- Subtle highlight on star -->
  <circle cx="14" cy="14" r="1" fill="#ffffff" opacity="0.3"/>
</svg> 